<?xml version="1.0" encoding="iso-8859-1"?>
<!DOCTYPE svg PUBLIC "-//W3C//DTD SVG 1.1//EN" "http://www.w3.org/Graphics/SVG/1.1/DTD/svg11.dtd">
<svg version="1.1" xmlns="http://www.w3.org/2000/svg" xmlns:xlink="http://www.w3.org/1999/xlink" x="0px" y="0px" width="100px"
	 height="100px" viewBox="0 0 100 100" style="enable-background:new 0 0 100 100;" xml:space="preserve">
<g id="Layer_1">
	<g>
		<path style="fill:#FFFFFF;" d="M50,95C25.187,95,5,74.813,5,50C5,25.187,25.187,5,50,5c24.813,0,45,20.187,45,45
			C95,74.813,74.813,95,50,95z"/>
		<path style="fill:none;stroke:#0F3670;stroke-width:10;stroke-miterlimit:10;" d="M50,95C25.187,95,5,74.813,5,50
			C5,25.187,25.187,5,50,5c24.813,0,45,20.187,45,45C95,74.813,74.813,95,50,95z"/>
	</g>
</g>
<g id="Layer_2">
	<path style="fill:#43ACE5;" d="M59.409,43.5h13.222v20.299c0,4.943-4.008,8.951-8.952,8.951H36.321
		c-4.944,0-8.952-4.008-8.952-8.951V43.5h13.162c-1.347,1.893-2.143,4.207-2.143,6.707c0,6.396,5.185,11.581,11.582,11.581
		c6.396,0,11.58-5.185,11.58-11.581C61.551,47.707,60.757,45.393,59.409,43.5z M72.631,36.203v5.879H58.222
		c-2.102-2.133-5.021-3.457-8.251-3.457c-3.23,0-6.151,1.324-8.251,3.457h-14.35v-5.879c0-3.018,1.494-5.684,3.781-7.306v9.64h1.835
		V27.896c0.417-0.167,0.848-0.304,1.292-0.408v11.049h1.835V27.256c0.069-0.001,0.137-0.006,0.208-0.006h1.06v11.287h1.835V27.25
		h24.462C68.623,27.25,72.631,31.259,72.631,36.203z M68.54,32.431c0-0.793-0.645-1.437-1.438-1.437h-4.839
		c-0.794,0-1.436,0.643-1.436,1.437v4.945c0,0.793,0.642,1.436,1.436,1.436h4.839c0.793,0,1.438-0.643,1.438-1.436V32.431
		L68.54,32.431z M41.047,50.207c0-2.671,1.182-5.07,3.047-6.707c0.654-0.573,1.393-1.053,2.195-1.417
		c1.123-0.512,2.369-0.798,3.681-0.798c1.311,0,2.557,0.287,3.68,0.798c0.802,0.364,1.541,0.844,2.196,1.417
		c1.864,1.637,3.046,4.036,3.046,6.707c0,4.919-4.002,8.922-8.922,8.922S41.047,55.126,41.047,50.207z M43.405,50.207
		c0,3.642,2.953,6.595,6.595,6.595c3.643,0,6.594-2.953,6.594-6.595c0-3.643-2.951-6.594-6.594-6.594
		C46.358,43.613,43.405,46.564,43.405,50.207z"/>
</g>
</svg>
