<?xml version="1.0" encoding="iso-8859-1"?>
<!DOCTYPE svg PUBLIC "-//W3C//DTD SVG 1.1//EN" "http://www.w3.org/Graphics/SVG/1.1/DTD/svg11.dtd">
<svg version="1.1" xmlns="http://www.w3.org/2000/svg" xmlns:xlink="http://www.w3.org/1999/xlink" x="0px" y="0px" width="100px"
	 height="100px" viewBox="0 0 100 100" style="enable-background:new 0 0 100 100;" xml:space="preserve">
<g id="Layer_1">
	<g>
		<path style="fill:#FFFFFF;" d="M50,95C25.187,95,5,74.813,5,50C5,25.187,25.187,5,50,5c24.813,0,45,20.187,45,45
			C95,74.813,74.813,95,50,95z"/>
		<path style="fill:none;stroke:#0F3670;stroke-width:10;stroke-miterlimit:10;" d="M50,95C25.187,95,5,74.813,5,50
			C5,25.187,25.187,5,50,5c24.813,0,45,20.187,45,45C95,74.813,74.813,95,50,95z"/>
	</g>
</g>
<g id="Layer_2">
	
		<path transform="translate(-282.32053,-396.30734)" style="fill:#43ACE5;" d="
		M360.098,429.077c-2.044,0.907-4.238,1.519-6.545,1.794c2.354-1.411,4.161-3.644,5.011-6.306c-2.203,1.306-4.64,2.254-7.238,2.766
		c-2.079-2.215-5.04-3.6-8.319-3.6c-6.295,0-11.398,5.104-11.398,11.397c0,0.894,0.101,1.764,0.296,2.598
		c-9.473-0.475-17.872-5.013-23.494-11.909c-0.981,1.684-1.544,3.641-1.544,5.73c0,3.954,2.013,7.443,5.071,9.487
		c-1.868-0.06-3.625-0.572-5.163-1.425c-0.001,0.047-0.001,0.095-0.001,0.143c0,5.522,3.929,10.13,9.144,11.177
		c-0.957,0.261-1.963,0.399-3.003,0.399c-0.734,0-1.449-0.071-2.144-0.204c1.45,4.527,5.66,7.823,10.648,7.915
		c-3.901,3.057-8.816,4.88-14.156,4.88c-0.92,0-1.827-0.055-2.719-0.159c5.044,3.234,11.036,5.12,17.472,5.12
		c20.966,0,32.431-17.367,32.431-32.43c0-0.494-0.013-0.985-0.033-1.474C356.638,433.37,358.572,431.363,360.098,429.077
		L360.098,429.077z"/>
</g>
</svg>
