<?xml version="1.0" encoding="iso-8859-1"?>
<!-- Generator: Adobe Illustrator 16.0.4, SVG Export Plug-In . SVG Version: 6.00 Build 0)  -->
<!DOCTYPE svg PUBLIC "-//W3C//DTD SVG 1.1//EN" "http://www.w3.org/Graphics/SVG/1.1/DTD/svg11.dtd">
<svg version="1.1" xmlns="http://www.w3.org/2000/svg" xmlns:xlink="http://www.w3.org/1999/xlink" x="0px" y="0px" width="500px"
	 height="500px" viewBox="0 0 500 500" style="enable-background:new 0 0 500 500;" xml:space="preserve">
<g id="Stopwatch">
	<circle style="fill:none;stroke:#0F3670;stroke-width:30;stroke-miterlimit:10;" cx="251.473" cy="250" r="135.878"/>
	<path style="fill:#0F3670;" d="M156.006,130.015c4.687,4.687,4.687,12.285,0,16.971l-12.021,12.021
		c-4.687,4.687-12.284,4.687-16.971,0l-12.021-12.021c-4.687-4.687-4.687-12.284,0-16.971l12.021-12.021
		c4.686-4.686,12.284-4.687,16.971,0L156.006,130.015z"/>
	<path style="fill:#0F3670;" d="M345.817,147.681c-5.002-4.348-5.532-11.927-1.184-16.929l11.153-12.831
		c4.348-5.001,11.927-5.53,16.93-1.183l12.829,11.153c5.002,4.348,5.531,11.927,1.184,16.929l-11.153,12.83
		c-4.347,5.002-11.927,5.532-16.928,1.184L345.817,147.681z"/>
	<circle style="fill:#0F3670;" cx="250" cy="250" r="24.832"/>
	<g>
		<g>
			<path style="fill:#0F3670;" d="M265,250c0-23.887,0-47.773,0-71.66c0-0.676,0-1.352,0-2.027c0-8.177-6.823-15-15-15
				s-15,6.823-15,15c0,23.887,0,47.773,0,71.66c0,0.676,0,1.352,0,2.027c0,8.177,6.823,15,15,15S265,258.177,265,250L265,250z"/>
		</g>
	</g>
	<g>
		<g>
			<path style="fill:#0F3670;" d="M239.395,260.606c13.409,13.409,26.818,26.819,40.229,40.229c5.779,5.779,15.434,5.779,21.213,0
				s5.779-15.434,0-21.213c-13.409-13.409-26.818-26.819-40.229-40.229c-5.779-5.779-15.434-5.779-21.213,0
				C233.615,245.172,233.615,254.827,239.395,260.606L239.395,260.606z"/>
		</g>
	</g>
</g>
<g id="Layer_1">
</g>
</svg>
