<?xml version="1.0" encoding="iso-8859-1"?>
<!-- Generator: Adobe Illustrator 16.0.4, SVG Export Plug-In . SVG Version: 6.00 Build 0)  -->
<!DOCTYPE svg PUBLIC "-//W3C//DTD SVG 1.1//EN" "http://www.w3.org/Graphics/SVG/1.1/DTD/svg11.dtd">
<svg version="1.1" xmlns="http://www.w3.org/2000/svg" xmlns:xlink="http://www.w3.org/1999/xlink" x="0px" y="0px" width="500px"
	 height="500px" viewBox="0 0 500 500" style="enable-background:new 0 0 500 500;" xml:space="preserve">
<g id="Football_Pitch">
	<g>
		<g>
			<path style="fill:none;stroke:#0F3670;stroke-width:30;stroke-miterlimit:10;" d="M394.002,345.561
				c1.206,4.332-3.83,7.843-11.247,7.843c-92.505,0-185.01,0-277.516,0c-7.415,0-12.219-3.511-10.728-7.843
				c25.947-75.393,51.894-150.785,77.841-226.178c1.491-4.333,5.738-7.846,9.485-7.846c46.743,0,93.486,0,140.228,0
				c3.748,0,7.765,3.513,8.972,7.846C352.025,194.775,373.014,270.168,394.002,345.561z"/>
			<path style="fill:none;stroke:#0F3670;stroke-width:15;stroke-miterlimit:10;" d="M282.896,231.818
				c0.861,13.87-14.021,28.442-37.647,28.443c-23.629,0.001-37.416-14.573-35.516-28.443c1.901-13.873,17.421-28.442,37.646-28.444
				C267.604,203.372,282.034,217.948,282.896,231.818z"/>
			<path style="fill:none;stroke:#0F3670;stroke-width:15;stroke-miterlimit:10;" d="M209.277,232.146c-21.598,0-43.197,0-64.794,0"
				/>
			<path style="fill:none;stroke:#0F3670;stroke-width:15;stroke-miterlimit:10;" d="M283.329,232.146
				c24.123,0.001,48.243,0,72.365,0"/>
			<g>
				<path style="fill:#0F3670;" d="M206.773,348.83c1.127-10.241,2.254-20.481,3.381-30.723c1.094-9.937-22.843-9.937-24.472,0
					c-1.679,10.241-3.361,20.482-5.039,30.723C179.016,358.766,205.68,358.767,206.773,348.83L206.773,348.83z"/>
			</g>
			<g>
				<path style="fill:#0F3670;" d="M196.291,326.138c30.995,0,61.99,0,92.984,0c16.062,0,14.551-15.409-0.975-15.409
					c-29.96,0-59.92,0-89.88,0C182.894,310.729,180.229,326.138,196.291,326.138L196.291,326.138z"/>
			</g>
			<g>
				<path style="fill:#0F3670;" d="M276.028,318.761c0.353,10.023,0.704,20.046,1.057,30.069c0.349,9.937,27.016,9.937,26.13,0
					c-0.893-10.023-1.785-20.046-2.678-30.069C299.652,308.824,275.68,308.824,276.028,318.761L276.028,318.761z"/>
			</g>
			<g>
				<g>
					<path style="fill:#0F3670;" d="M270.75,114.807c0.436,10.241,0.872,20.482,1.311,30.724c0.27,6.323,10.135,6.323,9.647,0
						c-0.788-10.241-1.576-20.482-2.364-30.724C278.856,108.483,270.48,108.483,270.75,114.807L270.75,114.807z"/>
				</g>
				<g>
					<path style="fill:#0F3670;" d="M276.889,140.3c-15.78,0-31.561-0.002-47.341,0c-2.737,0-5.475,0-8.212,0
						c-6.106,0-7.7,9.807-1.377,9.807c16.34-0.001,32.683-0.003,49.023-0.001c2.835,0,5.67,0,8.505,0
						C283.81,150.105,282.995,140.3,276.889,140.3L276.889,140.3z"/>
				</g>
				<g>
					<path style="fill:#0F3670;" d="M225.827,144.878c1.226-10.024,2.45-20.047,3.674-30.071c0.772-6.323-7.605-6.323-8.595,0
						c-1.569,10.022-3.135,20.047-4.704,30.07C215.212,151.2,225.054,151.201,225.827,144.878L225.827,144.878z"/>
				</g>
			</g>
		</g>
	</g>
</g>
<g id="Layer_1">
</g>
</svg>
