<?xml version="1.0" encoding="iso-8859-1"?>
<!-- Generator: Adobe Illustrator 16.0.4, SVG Export Plug-In . SVG Version: 6.00 Build 0)  -->
<!DOCTYPE svg PUBLIC "-//W3C//DTD SVG 1.1//EN" "http://www.w3.org/Graphics/SVG/1.1/DTD/svg11.dtd">
<svg version="1.1" xmlns="http://www.w3.org/2000/svg" xmlns:xlink="http://www.w3.org/1999/xlink" x="0px" y="0px" width="500px"
	 height="500px" viewBox="0 0 500 500" style="enable-background:new 0 0 500 500;" xml:space="preserve">
<g id="Diabetes_UK">
	<g>
		<path style="fill:#0F3670;" d="M276.064,153.076c0-14.187-11.874-26.066-26.066-26.064c-14.191,0.002-26.062,11.876-26.063,26.063
			c0,14.188,11.875,26.062,26.063,26.064C264.188,179.142,276.064,167.263,276.064,153.076z"/>
		<g>
			<path style="fill:#0F3670;" d="M223,215.221c0,43.589-0.21,87.391,0,130.768c0.071,14.62,12.456,27,27,27
				c14.541,0,26.931-12.381,27-27c0.207-43.381,0.213-87.393,0-130.768c-0.072-14.619-12.458-27-27-27
				C235.455,188.222,223.146,200.528,223,215.221L223,215.221z"/>
		</g>
	</g>
</g>
<g id="Layer_1">
</g>
</svg>
