<?xml version="1.0" encoding="iso-8859-1"?>
<!-- Generator: Adobe Illustrator 16.0.4, SVG Export Plug-In . SVG Version: 6.00 Build 0)  -->
<!DOCTYPE svg PUBLIC "-//W3C//DTD SVG 1.1//EN" "http://www.w3.org/Graphics/SVG/1.1/DTD/svg11.dtd">
<svg version="1.1" xmlns="http://www.w3.org/2000/svg" xmlns:xlink="http://www.w3.org/1999/xlink" x="0px" y="0px" width="500px"
	 height="500px" viewBox="0 0 500 500" style="enable-background:new 0 0 500 500;" xml:space="preserve">
<g id="Tape_Measure">
	<g>
		<path style="fill:none;stroke:#0F3670;stroke-width:30;stroke-miterlimit:10;" d="M425.308,271.678
			c2.743,6.032-1.343,13.825-9.226,17.079c-108.556,42.846-224.609,42.844-333.166,0c-7.883-3.254-11.968-11.047-9.225-17.079
			c5.793-12.744,11.59-25.487,17.384-38.231c2.743-6.033,10.322-8.462,17.014-5.7c92.489,36.251,190.331,36.248,282.82,0
			c6.691-2.762,14.271-0.333,17.014,5.7C413.718,246.19,419.515,258.934,425.308,271.678z"/>
		<g>
			<path style="fill:#0F3670;" d="M176.049,261.682c-0.766,3.926-1.532,7.853-2.298,11.778c-0.783,4.013,2.485,8.135,7.199,8.947
				s9.167-1.978,9.774-6.021c0.594-3.956,1.189-7.911,1.784-11.867c0.607-4.043-2.567-7.961-6.966-8.72
				S176.832,257.669,176.049,261.682L176.049,261.682z"/>
		</g>
		<g>
			<path style="fill:#0F3670;" d="M154.273,256.775c-0.993,3.875-1.985,7.748-2.978,11.623c-1.015,3.961,2.02,8.269,6.691,9.357
				s9.29-1.437,10.131-5.438c0.823-3.914,1.645-7.828,2.467-11.743c0.841-4.001-2.109-8.1-6.468-9.115
				S155.288,252.814,154.273,256.775L154.273,256.775z"/>
		</g>
		<g>
			<path style="fill:#0F3670;" d="M132.746,250.585c-1.217,3.811-2.434,7.621-3.651,11.432c-1.244,3.895,1.549,8.376,6.166,9.74
				s9.387-0.883,10.459-4.828c1.049-3.86,2.099-7.721,3.147-11.581c1.072-3.945-1.647-8.212-5.956-9.484
				S133.99,246.69,132.746,250.585L132.746,250.585z"/>
		</g>
		<g>
			<path style="fill:#0F3670;" d="M220.103,267.777c-0.688,8.961-1.378,17.925-2.066,26.886c-0.741,9.645,17.48,10.646,17.801,0.979
				c0.299-8.982,0.597-17.968,0.896-26.95C237.056,259.024,220.844,258.133,220.103,267.777L220.103,267.777z"/>
		</g>
		<g>
			<path style="fill:#0F3670;" d="M198.014,265.307c-0.537,3.964-1.073,7.927-1.61,11.891c-0.548,4.052,2.943,7.976,7.688,8.513
				s9.022-2.506,9.395-6.577c0.364-3.983,0.729-7.966,1.093-11.949c0.372-4.071-3.018-7.801-7.444-8.303
				S198.562,261.255,198.014,265.307L198.014,265.307z"/>
		</g>
		<g>
			<path style="fill:#0F3670;" d="M242.286,268.707c-0.075,3.999-0.151,7.997-0.226,11.996c-0.077,4.088,3.837,7.582,8.605,7.568
				c4.769-0.014,8.662-3.532,8.562-7.619c-0.099-3.999-0.196-7.995-0.295-11.994c-0.101-4.087-3.895-7.399-8.344-7.387
				C246.139,261.284,242.363,264.619,242.286,268.707L242.286,268.707z"/>
		</g>
		<g>
			<path style="fill:#0F3670;" d="M264.479,268.48c0.156,3.997,0.312,7.993,0.469,11.99c0.159,4.085,4.269,7.348,9.03,7.059
				s8.449-4.025,8.112-8.1c-0.329-3.986-0.659-7.971-0.988-11.957c-0.337-4.074-4.319-7.161-8.762-6.892
				S264.319,264.396,264.479,268.48L264.479,268.48z"/>
		</g>
		<g>
			<path style="fill:#0F3670;" d="M286.633,266.975c0.387,3.981,0.773,7.962,1.16,11.943c0.396,4.069,4.691,7.087,9.434,6.521
				s8.214-4.509,7.642-8.557c-0.56-3.961-1.119-7.92-1.679-11.881c-0.572-4.048-4.732-6.897-9.157-6.37
				S286.237,262.905,286.633,266.975L286.633,266.975z"/>
		</g>
		<g>
			<path style="fill:#0F3670;" d="M308.691,264.184c0.617,3.952,1.235,7.903,1.853,11.855c0.631,4.039,5.099,6.807,9.81,5.966
				s7.954-4.983,7.148-8.991c-0.788-3.922-1.577-7.844-2.365-11.766c-0.806-4.008-5.13-6.607-9.525-5.823
				S308.061,260.144,308.691,264.184L308.691,264.184z"/>
		</g>
		<g>
			<path style="fill:#0F3670;" d="M308.691,264.184c0.617,3.952,1.235,7.903,1.853,11.855c0.631,4.039,5.099,6.807,9.81,5.966
				s7.954-4.983,7.148-8.991c-0.788-3.922-1.577-7.844-2.365-11.766c-0.806-4.008-5.13-6.607-9.525-5.823
				S308.061,260.144,308.691,264.184L308.691,264.184z"/>
		</g>
		<g>
			<path style="fill:#0F3670;" d="M330.622,260.239c1.899,8.785,3.8,17.567,5.699,26.353c2.045,9.454,19.9,5.187,17.445-4.17
				c-2.281-8.693-4.561-17.388-6.842-26.081C344.47,246.985,328.578,250.785,330.622,260.239L330.622,260.239z"/>
		</g>
		<g>
			<path style="fill:#0F3670;" d="M352.291,254.755c1.071,3.854,2.143,7.708,3.214,11.562c1.095,3.939,5.88,6.16,10.491,4.769
				s7.379-5.893,6.112-9.78c-1.239-3.804-2.478-7.605-3.717-11.409c-1.267-3.887-5.894-5.96-10.196-4.661
				S351.196,250.816,352.291,254.755L352.291,254.755z"/>
		</g>
		<g>
			<path style="fill:#0F3670;" d="M373.719,248.115c1.295,3.785,2.59,7.568,3.885,11.353c1.323,3.868,6.244,5.802,10.788,4.135
				s7.06-6.328,5.567-10.135c-1.46-3.724-2.919-7.448-4.379-11.172c-1.492-3.806-6.249-5.597-10.488-4.042
				S372.396,244.247,373.719,248.115L373.719,248.115z"/>
		</g>
		<g>
			<path style="fill:#0F3670;" d="M111.476,243.236c-3.232,8.386-6.464,16.773-9.695,25.16c-3.478,9.026,13.93,15.301,17.008,6.13
				c2.859-8.521,5.72-17.043,8.58-25.563C130.445,239.792,114.954,234.21,111.476,243.236L111.476,243.236z"/>
		</g>
	</g>
</g>
<g id="Layer_1">
</g>
</svg>
