<?xml version="1.0" encoding="iso-8859-1"?>
<!-- Generator: Adobe Illustrator 16.0.4, SVG Export Plug-In . SVG Version: 6.00 Build 0)  -->
<!DOCTYPE svg PUBLIC "-//W3C//DTD SVG 1.1//EN" "http://www.w3.org/Graphics/SVG/1.1/DTD/svg11.dtd">
<svg version="1.1" xmlns="http://www.w3.org/2000/svg" xmlns:xlink="http://www.w3.org/1999/xlink" x="0px" y="0px" width="500px"
	 height="500px" viewBox="0 0 500 500" style="enable-background:new 0 0 500 500;" xml:space="preserve">
<g id="Pound">
	<g>
		<g>
			<path style="fill:#0F3670;" d="M148,262.5c43.667,0,87.333,0,131,0c10.63,0,19.5-8.87,19.5-19.5s-8.87-19.5-19.5-19.5
				c-43.667,0-87.333,0-131,0c-10.63,0-19.5,8.87-19.5,19.5S137.37,262.5,148,262.5L148,262.5z"/>
		</g>
	</g>
	<g>
		<g>
			<path style="fill:#0F3670;" d="M348,337.5c-48.808,0-97.616,0-146.424,0c-2.525,0-5.051,0-7.576,0c-10.63,0-19.5,8.87-19.5,19.5
				s8.87,19.5,19.5,19.5c48.808,0,97.616,0,146.424,0c2.525,0,5.051,0,7.576,0c10.63,0,19.5-8.87,19.5-19.5S358.63,337.5,348,337.5
				L348,337.5z"/>
		</g>
	</g>
	<g>
		<g>
			<path style="fill:#0F3670;" d="M213.5,357c0-49.902,0-99.805,0-149.707c0-12.098,0-24.195,0-36.293c0-10.63-8.87-19.5-19.5-19.5
				s-19.5,8.87-19.5,19.5c0,49.902,0,99.805,0,149.707c0,12.098,0,24.195,0,36.293c0,10.63,8.87,19.5,19.5,19.5
				S213.5,367.63,213.5,357L213.5,357z"/>
		</g>
	</g>
	<g>
		<g>
			<path style="fill:#0F3670;" d="M210.838,180.842c2.116-4.338,4.871-8.417,7.701-12.312c1.012-1.392,3.695-4.808-0.906,1.112
				c0.782-1.006,1.589-1.99,2.406-2.967c1.778-2.128,3.659-4.168,5.603-6.145c1.932-1.965,3.968-3.826,6.063-5.614
				c0.594-0.507,1.201-0.998,1.808-1.488c2.595-2.098-4.123,3.125-1.433,1.111c1.298-0.972,2.638-1.886,3.991-2.779
				c2.565-1.692,5.253-3.188,8.005-4.553c0.77-0.382,1.554-0.736,2.337-1.09c-5.928,2.676-2.815,1.172-1.438,0.632
				c1.657-0.649,3.35-1.2,5.052-1.716c1.455-0.44,2.932-0.8,4.413-1.139c1.715-0.392,8.608-1.313,1.304-0.4
				c3.968-0.496,7.979-0.539,11.966-0.33c1.556,0.082,7.99,0.929,1.198-0.029c2.236,0.315,4.449,0.779,6.649,1.284
				c4.826,1.109,9.519,2.744,14.101,4.608c-5.395-2.194,1.644,0.882,2.792,1.451c2.629,1.302,5.187,2.744,7.719,4.222
				c5.659,3.302,11.029,7.083,16.242,11.045c8.485,6.448,21.795,1.343,26.68-6.996c5.862-10.008,1.449-20.262-6.996-26.68
				c-19.794-15.042-42.356-25.784-67.34-27.834c-17.657-1.449-35.985,3.745-50.978,12.964
				c-16.576,10.192-32.015,26.332-40.614,43.958c-4.66,9.553-2.678,21.012,6.996,26.68
				C192.804,192.902,206.18,190.391,210.838,180.842L210.838,180.842z"/>
		</g>
	</g>
</g>
<g id="Layer_1">
</g>
</svg>
