<?xml version="1.0" encoding="iso-8859-1"?>
<!-- Generator: Adobe Illustrator 16.0.4, SVG Export Plug-In . SVG Version: 6.00 Build 0)  -->
<!DOCTYPE svg PUBLIC "-//W3C//DTD SVG 1.1//EN" "http://www.w3.org/Graphics/SVG/1.1/DTD/svg11.dtd">
<svg version="1.1" xmlns="http://www.w3.org/2000/svg" xmlns:xlink="http://www.w3.org/1999/xlink" x="0px" y="0px" width="500px"
	 height="500px" viewBox="0 0 500 500" style="enable-background:new 0 0 500 500;" xml:space="preserve">
<g id="People">
	<g>
		<title>Layer 1</title>
		<g id="svg_3_1_">
			<path id="svg_1_1_" style="fill:#43ACE5;" d="M316.325,152.443c12.286,0,22.218-9.54,22.218-21.403
				c0-11.79-9.932-21.38-22.218-21.38c-12.209,0-22.142,9.59-22.142,21.38C294.188,142.904,304.119,152.443,316.325,152.443z"/>
			<path id="svg_2_1_" style="fill:#43ACE5;" d="M286.352,360.037c0,6.644,5.482,12.014,12.361,12.014
				c6.854,0,12.44-5.37,12.44-12.014V259.363h10.422v100.674c0,6.644,5.589,12.014,12.441,12.014c6.88,0,12.389-5.37,12.389-12.014
				l0.075-173.576h10.346v63.986c0,12.887,17.355,12.887,17.355,0v-65.384c0-14.21-11.457-28.097-28.684-28.097l-58.763-0.073
				c-15.752,0-28.372,12.388-28.372,27.774v65.783c0,12.737,17.456,12.737,17.456,0v-63.989h10.528v173.576H286.352z"/>
		</g>
	</g>
	<g>
		<title>Layer 1</title>
		<g id="svg_3_2_">
			<path id="svg_1_2_" style="fill:#43ACE5;" d="M188.361,152.443c12.286,0,22.218-9.54,22.218-21.403
				c0-11.79-9.932-21.38-22.218-21.38c-12.209,0-22.141,9.59-22.141,21.38C166.223,142.904,176.155,152.443,188.361,152.443z"/>
			<path id="svg_2_2_" style="fill:#43ACE5;" d="M158.388,360.037c0,6.644,5.482,12.014,12.361,12.014
				c6.854,0,12.441-5.37,12.441-12.014V259.363h10.421v100.674c0,6.644,5.589,12.014,12.441,12.014
				c6.879,0,12.388-5.37,12.388-12.014l0.076-173.576h10.345v63.986c0,12.887,17.355,12.887,17.355,0v-65.384
				c0-14.21-11.457-28.097-28.684-28.097l-58.762-0.073c-15.752,0-28.372,12.388-28.372,27.774v65.783
				c0,12.737,17.457,12.737,17.457,0v-63.989h10.528v173.576H158.388z"/>
		</g>
	</g>
	<g>
		<title>Layer 1</title>
		<g id="svg_3">
			<path id="svg_1" style="fill:#0F3670;" d="M252.343,184.434c12.286,0,22.218-9.54,22.218-21.403
				c0-11.79-9.932-21.38-22.218-21.38c-12.208,0-22.141,9.591-22.141,21.38C230.205,174.895,240.137,184.434,252.343,184.434z"/>
			<path id="svg_2" style="fill:#0F3670;" d="M222.369,392.027c0,6.645,5.482,12.015,12.362,12.015
				c6.854,0,12.441-5.37,12.441-12.015V291.354h10.421v100.673c0,6.645,5.589,12.015,12.441,12.015
				c6.879,0,12.388-5.37,12.388-12.015l0.076-173.576h10.345v63.987c0,12.887,17.355,12.887,17.355,0v-65.384
				c0-14.21-11.457-28.097-28.684-28.097l-58.762-0.074c-15.751,0-28.372,12.388-28.372,27.774v65.784
				c0,12.736,17.457,12.736,17.457,0v-63.99h10.528v173.576H222.369z"/>
		</g>
	</g>
</g>
<g id="Layer_1">
</g>
</svg>
