<?xml version="1.0" encoding="utf-8"?>
<!-- Generator: Adobe Illustrator 16.0.4, SVG Export Plug-In . SVG Version: 6.00 Build 0)  -->
<!DOCTYPE svg PUBLIC "-//W3C//DTD SVG 1.1//EN" "http://www.w3.org/Graphics/SVG/1.1/DTD/svg11.dtd">
<svg version="1.1" xmlns="http://www.w3.org/2000/svg" xmlns:xlink="http://www.w3.org/1999/xlink" x="0px" y="0px" width="500px"
	 height="500px" viewBox="0 0 500 500" enable-background="new 0 0 500 500" xml:space="preserve">
<g id="Layer_1">
	<circle opacity="0.05" cx="250" cy="250" r="250"/>
</g>
<g id="Layer_2">
	<g>
		<path fill="#0F3670" d="M314.929,166.955c-12.079-18.367-27.556-27.556-46.429-27.556c-14.598,0-26.931,5.037-36.993,15.099
			c-10.068,10.068-15.099,22.4-15.099,36.992v29.065h66.058v40.767h-66.058v74.74h132.115v41.145h-173.26V261.322h-32.84v-40.767
			h32.84V191.49c0-25.161,9.184-46.931,27.556-65.303c18.62-18.62,40.514-27.933,65.681-27.933c8.304,0,16.42,1.197,24.347,3.586
			c7.927,2.395,15.477,5.727,22.648,10.003c7.172,4.282,13.777,9.437,19.817,15.476c6.039,6.04,11.324,12.834,15.854,20.384
			L314.929,166.955z"/>
	</g>
	<g>
	</g>
	<g>
	</g>
	<g>
	</g>
	<g>
	</g>
	<g>
	</g>
	<g>
	</g>
	<g>
	</g>
	<g>
	</g>
	<g>
	</g>
	<g>
	</g>
	<g>
	</g>
	<g>
	</g>
	<g>
	</g>
	<g>
	</g>
	<g>
	</g>
</g>
</svg>
