<?xml version="1.0" encoding="utf-8"?>
<!-- Generator: Adobe Illustrator 16.0.4, SVG Export Plug-In . SVG Version: 6.00 Build 0)  -->
<!DOCTYPE svg PUBLIC "-//W3C//DTD SVG 1.1//EN" "http://www.w3.org/Graphics/SVG/1.1/DTD/svg11.dtd">
<svg version="1.1" xmlns="http://www.w3.org/2000/svg" xmlns:xlink="http://www.w3.org/1999/xlink" x="0px" y="0px"
	 width="1352.184px" height="445.517px" viewBox="0 0 1352.184 445.517" enable-background="new 0 0 1352.184 445.517"
	 xml:space="preserve">
<g id="Layer_2">
	<g>
		<g>
			<path fill="#0F3670" d="M1326.684,25.618c-38.853,2.929-72.575,19.894-97.004,50.404c-4.246,5.304-8.389,10.676-13.006,15.667
				c-2.232,2.414-4.654,4.63-7.188,6.721c5.45-4.497,1.2-1.108-0.154-0.256c-1.511,0.951-8.264,3.648-1.348,0.992
				c-1.614,0.62-3.299,1.03-4.976,1.439c-5.999,1.465,5.913-0.395-0.555,0.065c-1.976,0.141-3.962,0.062-5.938-0.01
				c-6.649-0.243,5.513,1.09-1.026-0.036c-3.873-0.667-7.629-1.891-11.3-3.265c5.996,2.245,0.035-0.163-1.048-0.721
				c-2.337-1.203-4.547-2.636-6.729-4.094c-5.496-3.669,3.98,3.42-1.074-0.831c-1.508-1.268-2.907-2.656-4.303-4.042
				c-1.395-1.384-2.671-2.88-3.944-4.374c3.21,3.765,1.454,1.932,0.749,0.887c-2.307-3.42-4.018-7.274-5.738-11.009
				c-4.474-9.71-8.489-19.616-13.395-29.125c-6.249-12.114-14.261-22.824-25.197-31.026c-13.434-10.076-29.909-8.956-44.446-2.454
				c-11.083,4.958-19.093,16.129-25.385,26.005c-5.747,9.02-10.589,18.599-15.974,27.833c-2.63,4.51-5.408,8.931-8.416,13.199
				c-1.041,1.477-4.044,5.293,1.017-1.197c-0.737,0.945-1.513,1.857-2.291,2.768c-1.717,2.01-3.597,3.87-5.576,5.619
				c-3.341,2.952,5.385-3.924,1.816-1.4c-0.829,0.586-1.71,1.093-2.591,1.596c-1.826,1.042-5.578,2.164,2.521-0.95
				c-0.899,0.346-1.836,0.576-2.77,0.802c-4.155,1.009,7.253-0.664,2.958-0.44c-2.073,0.108-6.277-0.62,2.802,0.641
				c-1.049-0.146-2.072-0.438-3.089-0.724c-3.847-1.084,6.487,3.275,0.729,0.293c-1.163-0.603-2.258-1.331-3.351-2.05
				c-4.393-2.889,4.928,4.079,1.268,0.989c-1.903-1.606-3.625-3.424-5.306-5.255c-1.796-1.955-3.458-4.033-5.1-6.118
				c5.474,6.951-1.328-1.953-2.617-3.74c-7.3-10.121-14.38-21.179-24.115-29.16c-12.866-10.547-29.124-16.573-45.642-10.837
				c-18.858,6.549-31.567,22.607-42.745,38.327c-10.588,14.891-18.272,32.607-21.821,50.52c-1.934,9.755-3,19.859-2.467,29.803
				c0.553,10.295,2.709,20.492,4.334,30.655c1.051,6.574-0.603-5.694,0.062,0.879c0.192,1.907,0.253,3.82,0.301,5.735
				c0.049,1.927-0.088,3.849-0.234,5.769c0.51-6.691-0.142-0.406-0.496,1.029c-0.229,0.926-2.744,7.094-0.417,1.93
				c-0.977,2.167-2.245,4.192-3.494,6.208c3.209-5.178,0.426-0.619-0.724,0.596c-1.722,1.818-3.657,3.443-5.551,5.076
				c-14.834,12.799-27.182,29.045-24.992,49.874c1.87,17.792,11.142,32.014,18.642,47.793c2.531,5.325-2.063-5.428-0.043,0.01
				c0.561,1.507,0.979,3.056,1.387,4.607c1.44,5.489-0.414-6.194,0.018-0.582c0.104,1.361,0.016,2.737-0.066,4.097
				c0.475-7.871,0.685-4.445,0.16-2.191c-0.472,2.021-2.364,5.741,1.142-2.12c-0.406,0.911-0.945,1.756-1.482,2.594
				c4.33-6.754,2.733-3.338,0.802-1.527c-3.061,2.87,5.586-3.961,2.033-1.66c-0.843,0.546-1.749,0.987-2.647,1.43
				c8.283-4.075,1.727-0.852-0.95-0.201c-1.099,0.268-2.217,0.451-3.331,0.638c8.596-1.438,4.158-0.552,2.101-0.378
				c-2.884,0.244-5.787,0.231-8.679,0.157c-2.587-0.066-5.17-0.283-7.745-0.532c-1.856-0.18-6.908-0.872,1.558,0.276
				c-1.307-0.177-2.607-0.388-3.908-0.598c-5.465-0.883-10.875-2.088-16.244-3.429c-8.853-2.212-17.621-4.923-26.087-8.333
				c6.081,2.449-0.109-0.13-1.123-0.594c-1.823-0.834-3.626-1.713-5.431-2.588c-3.665-1.777-7.291-3.635-10.926-5.474
				c-9.291-4.701-18.664-9.027-28.28-13.03c-18.529-7.711-38.233-9.965-57.944-6.095c-18.952,3.722-35.891,16.128-49.864,28.82
				c-12.048,10.943-22.344,23.659-33.97,35.031c-2.882,2.818-5.904,5.488-8.945,8.133c-1.683,1.464-3.407,2.879-5.132,4.292
				c-5.808,4.758,3.998-2.904-2.108,1.61c-3.705,2.739-7.585,5.222-11.553,7.559c-1.935,1.14-3.94,2.146-5.95,3.146
				c-2.693,1.235-2.661,1.234,0.099-0.006c-1.232,0.429-2.46,0.868-3.685,1.319c-6.783,2.467-13.805,4.236-20.883,5.613
				c-1.783,0.348-3.578,0.628-5.372,0.909c7.195-1.127,0.968-0.154-0.454-0.001c-4.252,0.458-8.528,0.666-12.802,0.779
				c-7.392,0.195-14.791-0.232-22.141-1.005c-6.412-0.674,5.794,0.885-0.59-0.061c-1.841-0.272-3.673-0.604-5.505-0.934
				c-4.28-0.771-8.518-1.765-12.73-2.843c-7.22-1.85-14.289-4.254-21.222-6.98c-5.954-2.341,5.095,2.258-0.749-0.327
				c-1.694-0.75-3.365-1.553-5.035-2.356c-3.881-1.866-7.66-3.938-11.388-6.092c-3.176-1.834-6.259-3.825-9.305-5.867
				c-1.516-1.017-2.996-2.084-4.475-3.152c-5.087-3.671,4.291,3.46-0.605-0.437c-6.104-4.856-11.731-10.287-16.962-16.064
				c-6.44-7.112-12.586-13.068-20.448-18.776c-6.933-5.034-14.699-8.873-22.019-13.295c-1.716-1.037-3.387-2.144-5.052-3.26
				c-5.6-3.752,3.957,3.416-1.301-0.916c-3.245-2.673-6.166-5.778-9.215-8.669c-7.404-7.017-15.16-13.531-23.278-19.706
				c-28.592-21.75-63.585-27.492-96.518-39.68c-1.876-0.694-3.733-1.438-5.589-2.184c5.967,2.397-0.237-0.153-1.218-0.599
				c-3.611-1.642-7.12-3.491-10.578-5.43c-3.456-1.939-6.761-4.129-9.992-6.418c-5.457-3.866,4.047,3.375-1.107-0.939
				c-2.067-1.73-3.999-3.611-5.906-5.513c-2.994-2.986-5.768-6.194-8.473-9.44c-4.564-5.477,2.973,4.119-1.267-1.661
				c-1.281-1.747-2.477-3.555-3.671-5.362c-2.394-3.623-4.503-7.422-6.494-11.277c-0.378-0.732-3.33-7.301-1.014-1.776
				c-1.109-2.645-2.017-5.366-2.888-8.096c-0.866-2.716-1.506-5.497-2.104-8.281c-0.502-2.948-0.536-2.791-0.102,0.473
				c-0.168-1.409-0.296-2.822-0.385-4.239c-0.217-2.829-0.148-5.669-0.023-8.5c0.087-1.412,0.217-2.82,0.388-4.225
				c-0.681,6.388,0.306-0.737,0.5-1.733c2.832-14.51,7.026-28.438,7.876-43.316c0.901-15.775-4.019-33.207-15.564-44.384
				c-9.19-8.897-21.311-11.398-32.866-15.66c7.035,2.594,0.019-0.25-1.55-1.166c-2.563-1.495-4.993-3.223-7.414-4.934
				c-4.363-3.085-8.609-6.312-13.112-9.196C109.602,1.474,94.333-1.777,78.754,0.932C66.782,3.013,56.126,9.581,46.087,16.094
				c-1.921,1.247-3.86,2.462-5.819,3.647c-1.526,0.924-10.096,5.012-2.929,2.001c-2.063,0.867-4.219,1.451-6.392,1.965
				c4-0.406,4.565-0.486,1.697-0.242c-1.525,0.121-7.337-0.522-0.481,0.466c-13.746-1.982-27.34,3.166-31.368,17.811
				c-3.332,12.115,4.028,29.38,17.811,31.368c10.602,1.529,20.376,1.848,30.728-1.599c8.635-2.875,16.365-7.405,23.941-12.319
				c2.896-1.879,5.804-3.731,8.788-5.47c1.481-0.863,3.01-1.634,4.545-2.395c-6.178,3.063-1.326,0.572,0.245,0.044
				c1.525-0.513,7.313-1.316,0.526-0.557c1.767-0.198,3.55-0.073,5.315,0.053c-6.992-0.5-1.995-0.039-0.137,0.521
				c2.594,0.95,2.135,0.726-1.375-0.671c1.033,0.492,2.048,1.017,3.047,1.576c6.233,3.354,11.798,7.927,17.561,12.001
				c7.423,5.248,15.565,8.969,24.214,11.772c2.857,0.926,5.744,1.741,8.577,2.743c-6.934-2.452-2.733-1.186-0.976-0.227
				c4.45,2.429-4.456-4.138-0.739-0.54c-4.446-4.304-1.688-2.337-0.439-0.017c-3.077-5.716-0.496-0.375-0.072,1.346
				c1.671,6.788-0.249-5.2,0.126,1.719c0.154,2.854-0.081,5.724-0.331,8.564c0.555-6.291-0.207,0.815-0.392,1.825
				c-0.397,2.166-0.893,4.315-1.376,6.463c-0.969,4.311-2.058,8.595-3.051,12.901c-2.432,10.541-4.127,21.46-3.61,32.295
				c1.004,21.015,8.728,41.311,19.949,58.937c10.989,17.261,25.081,31.976,41.977,43.473c14.922,10.153,32.537,16.562,49.594,22.109
				c7.647,2.486,15.375,4.722,23.075,7.038c3.807,1.146,7.603,2.323,11.389,3.536c1.873,0.6,3.735,1.229,5.598,1.859
				c1.052,0.356,9.715,3.792,3.93,1.319c7.32,3.129,14.22,7.151,20.795,11.618c1.602,1.088,3.157,2.242,4.711,3.395
				c-5.161-3.824,0.107,0.145,0.955,0.837c3.617,2.953,7.084,6.086,10.521,9.244c7.296,6.704,14.197,13.327,22.212,19.229
				c6.942,5.112,14.742,9,22.123,13.419c1.69,1.011,3.338,2.087,4.98,3.173c0.927,0.613,6.009,4.688,1.149,0.735
				c3.082,2.508,5.714,5.453,8.252,8.492c4.988,5.973,10.609,11.396,16.513,16.453c50.95,43.639,127.972,60.906,191.352,36.071
				c20-7.838,37.158-21.139,52.722-35.749c11.854-11.128,22.127-23.817,33.915-35.021c2.817-2.678,5.766-5.207,8.783-7.654
				c-4.983,4.041,0.094,0.05,1.028-0.604c1.574-1.103,3.214-2.106,4.854-3.106c1.644-1.002,3.353-1.889,5.061-2.771
				c5.806-3-5.118,1.856,1.019-0.535c1.971-0.768,4.006-1.336,6.043-1.893c1.321-0.335,2.653-0.622,3.995-0.86
				c-3.47,0.397-3.749,0.457-0.836,0.178c1.957-0.171,3.926-0.142,5.887-0.116c1.281,0.018,7.866,0.718,0.987-0.209
				c3.894,0.524,7.716,1.519,11.485,2.6c3.849,1.105,7.599,2.545,11.311,4.034c-5.898-2.366,0.434,0.256,1.364,0.679
				c2.486,1.131,4.94,2.333,7.394,3.534c23.395,11.452,46.068,22.337,71.643,27.786c26.945,5.741,55.331,7.576,78.145-10.171
				c11.479-8.93,16.577-26.728,14.802-40.649c-2.275-17.841-11.416-31.927-18.868-47.869c3.241,6.934-0.663-2.44-1.183-4.564
				c-1.341-5.471,0.416,6.208,0.122,0.629c-0.106-2.011,0.99-6.701-0.342,0.565c0.309-1.682,2.477-6.327-0.345-0.201
				c0.607-1.319,4.089-5.958,0.047-0.917c2.712-3.382,6.208-6.164,9.498-8.953c16.983-14.397,26.398-33.676,27.282-55.976
				c0.368-9.301-1.577-18.76-3.136-27.888c-0.335-1.962-0.669-3.924-0.992-5.888c-1.112-6.766,0.606,5.634-0.197-1.273
				c-0.572-4.921-0.626-9.854-0.358-14.796c0.059-1.082,0.858-8.1-0.038-1.52c0.278-2.04,0.679-4.06,1.078-6.078
				c0.792-3.994,1.937-7.909,3.188-11.779c0.622-1.925,1.354-3.813,2.082-5.7c-2.28,5.901,0.228-0.346,0.684-1.313
				c2.023-4.29,4.415-8.397,6.92-12.42c1.084-1.739,2.247-3.426,3.409-5.112c0.517-0.75,4.669-6.254,0.939-1.46
				c2.532-3.254,5.252-6.364,8.051-9.39c1.219-1.319,2.534-2.541,3.856-3.755c4.265-3.917-4.646,3.21-0.26,0.165
				c1.113-0.773,2.309-1.409,3.508-2.035c-6.856,3.579-2.983,1.197-0.541,0.636c-7.388,1.699-5.16,0.545-2.579,0.558
				c4.397,0.021-7.028-1.32-2.769-0.312c2.023,0.479,5.462,2.43-2.251-1.124c0.97,0.447,1.878,1.019,2.783,1.581
				c1.651,1.025,4.769,3.888-1.563-1.303c0.916,0.751,1.771,1.574,2.626,2.391c2.137,2.04,4.06,4.301,5.94,6.574
				c1.09,1.318,4.117,5.327-0.677-0.943c0.835,1.091,1.646,2.198,2.461,3.304c1.654,2.246,3.273,4.52,4.902,6.784
				c4.468,6.209,9.046,12.365,13.972,18.219c8.509,10.11,20.735,19.353,33.973,21.823c30.777,5.743,51.458-16.697,66.082-40.647
				c5.654-9.261,10.593-18.938,16.161-28.25c1.185-1.982,2.425-3.93,3.702-5.854c0.596-0.896,1.219-1.773,1.846-2.648
				c2.545-3.558-4.201,5.26-1.524,1.975c1.139-1.398,2.391-2.693,3.716-3.914c2.853-2.63-5.826,4.197-1.833,1.449
				c1.937-1.333,7.154-3.165-1.083,0.021c0.93-0.36,1.906-0.567,2.879-0.767c-7.795,1.6-5.623,0.615-3.084,0.708
				c-7.736-0.284-5.801-0.961-3.242-0.251c3.935,1.092-6.393-3.03-2.706-1.128c0.856,0.442,1.651,0.999,2.441,1.546
				c-6.704-4.64-3.636-2.853-2.029-1.372c0.796,0.733,1.527,1.537,2.259,2.333c4.224,4.6-2.973-4.167-0.389-0.665
				c6.417,8.699,10.891,18.836,15.266,28.661c7.161,16.078,13.627,30.29,27.196,42.354c21.651,19.249,53.879,30.122,82.266,20.568
				c23.895-8.042,36.056-27.73,51.96-45.476c1.771-1.975,3.658-3.838,5.565-5.679c1.092-1.054,9.166-7.636,4.213-3.883
				c4.8-3.637,10.017-6.687,15.38-9.404c1.193-0.59,2.398-1.156,3.614-1.699c-3.035,1.25-3.218,1.347-0.548,0.289
				c3.12-1.213,6.329-2.183,9.548-3.091c3.256-0.919,6.575-1.591,9.899-2.203c2.92-0.458,2.69-0.454-0.687,0.015
				c2.059-0.265,4.129-0.42,6.197-0.576c13.855-1.044,25.5-10.809,25.5-25.5C1352.184,38.009,1340.563,24.572,1326.684,25.618
				L1326.684,25.618z"/>
		</g>
	</g>
</g>
<g id="Path">
	<g>
		<g>
			<path d="M1256.624,135.112c-5.602,11.77-15.053,21.037-26.074,27.81c-11.7,7.191-24.163,9.686-37.652,7.506
				c-25.556-4.129-50.793-17.049-66.292-38.145c-11.076-15.075-25.942-36.894-46.749-22.998
				c-9.165,6.121-15.016,16.233-21.508,24.861c-8.34,11.082-18.59,16.738-32.804,15.721c-7.479-0.535-14.824-3.681-21.468-6.932
				c-6.157-3.013-12.706-6.336-18.121-10.575c-7.952-6.225-15.993-14.725-26.706-15.261c-8.86-0.443-14.303,8.533-16.977,15.664
				c-3.396,9.06-3.771,19.432-3.966,28.996c-0.407,19.93,3.584,40.317-2.185,59.743c-6.569,22.122-23.053,43.834-13.585,67.681
				c4.08,10.278,18.116,22.073,11.53,33.832c-1.756,3.136-4.924,5.47-7.415,7.997c-2.209,2.241-4.266,4.633-6.297,7.034
				c-4.162,4.92-8.04,10.069-12.289,14.918c-3.747,4.275-7.865,8.103-12.738,11.056c-6.396,3.876-14.173,4.97-21.426,6.178
				c-16.56,2.758-33.767,2.395-50.319-0.174c-16.611-2.577-32.033-8.34-47.825-13.815c-15.512-5.378-31.437-9.569-47.719-11.775
				c-13.783-1.868-26.853-2.36-39.734,3.512c-10.981,5.005-19.604,14.428-27.474,23.283c-9.33,10.496-18.608,20.726-29.498,29.659
				c-11.165,9.159-23.677,16.611-36.476,23.231c-27.694,14.324-60.571,12.802-90.479,7.822c-15.147-2.522-30.029-6.591-44.266-12.35
				c-14.723-5.956-27.549-14.75-40.254-24.119c-26.015-19.184-50.496-39.756-74.913-60.891c-9.737-8.427-19.895-16.411-31.01-22.952
				c-12.47-7.338-26.076-11.689-39.897-15.683c-14.335-4.143-28.795-8.081-42.331-14.473c-5.904-2.787-11.36-6.355-17.003-9.614
				c-5.041-2.912-11.004-6.148-12.577-12.178c-1.626-6.235-11.272-3.588-9.643,2.658c3.056,11.715,15.096,16.679,24.478,22.519
				c12.861,8.007,27.57,12.836,41.997,17.136c14.421,4.298,29.165,7.749,42.742,14.396c12.28,6.012,23.236,14.298,33.636,23.09
				c11.58,9.79,22.672,20.126,34.375,29.777c12.639,10.422,25.666,20.376,38.794,30.173c12.632,9.427,25.108,18.695,39.354,25.58
				c13.66,6.602,28.218,11.195,43.003,14.473c28.911,6.409,60.496,9.051,89.351,1.136c14.111-3.87,27.21-11.394,39.502-19.162
				c11.73-7.413,22.6-16.171,32.465-25.92c17.953-17.74,32.205-43.405,60.707-42.515c16.64,0.52,33.162,4.423,49.036,9.199
				c15.887,4.78,31.085,11.366,47.276,15.161c15.817,3.707,32.183,5.171,48.402,4.472c14.154-0.609,30.213-2.169,42.772-9.2
				c10.459-5.856,17.694-16.071,25.094-25.171c7.865-9.669,20.575-17.802,20.462-31.486c-0.106-12.844-11.591-21.902-15.19-33.551
				c-3.447-11.152,0.949-22.84,5.141-33.127c4.783-11.741,10.198-23.155,12.398-35.744c1.529-8.747,0.942-17.642,0.58-26.46
				c-0.434-10.571-0.854-21.152-0.335-31.728c0.418-8.499,1.271-18.08,6.184-25.311c5.656-8.325,17.526,3.921,22.298,7.837
				c10.208,8.378,22.62,14.849,35.076,19.151c13.009,4.493,28.31,4.174,40.243-3.154c9.438-5.795,15.516-15.972,21.942-24.665
				c5.261-7.116,13.4-17.311,23.372-13.765c8.811,3.132,15.152,14.748,20.33,21.847c17.797,24.403,46.137,38.91,75.71,43.271
				c28.826,4.251,59.214-14.466,71.578-40.444C1268.014,134.368,1259.394,129.291,1256.624,135.112L1256.624,135.112z"/>
		</g>
	</g>
</g>
<g id="Runnymede">
	<g>
		<g>
			<path fill="#43ACE5" d="M174.406,250.314c11.472,11.472,22.944,22.944,34.416,34.416c4.564,4.564,11.635-2.507,7.071-7.07
				c-11.472-11.473-22.944-22.944-34.416-34.417C176.913,238.679,169.842,245.75,174.406,250.314L174.406,250.314z"/>
		</g>
	</g>
	<g>
		<g>
			<path fill="#43ACE5" d="M181.477,284.729c11.472-11.472,22.944-22.944,34.416-34.416c4.563-4.564-2.507-11.635-7.071-7.071
				c-11.472,11.472-22.944,22.944-34.416,34.417C169.842,282.223,176.913,289.294,181.477,284.729L181.477,284.729z"/>
		</g>
	</g>
	<g>
		<path fill="#3FA9F5" d="M1195.517,196.103c-1.609,1.383-3.514,2.074-5.712,2.074h-6.324v10.438h-4.624v-25.466h10.948
			c2.176,0,4.068,0.68,5.678,2.04c1.723,1.496,2.584,3.321,2.584,5.474C1198.067,192.839,1197.217,194.653,1195.517,196.103z
			 M1192.321,188.589c-0.726-0.544-1.563-0.816-2.516-0.816h-6.324v5.78h6.324c0.952,0,1.79-0.272,2.516-0.816
			c0.726-0.521,1.088-1.212,1.088-2.074C1193.409,189.802,1193.046,189.111,1192.321,188.589z"/>
		<path fill="#3FA9F5" d="M1218.806,206.167c-2.062,2.017-4.511,3.026-7.344,3.026c-2.812,0-5.248-1.009-7.311-3.026
			c-2.018-2.062-3.025-4.499-3.025-7.31v-15.708h4.624v15.708c0,1.564,0.555,2.913,1.666,4.046c1.133,1.111,2.481,1.666,4.046,1.666
			c1.563,0,2.912-0.555,4.046-1.666c1.11-1.133,1.666-2.482,1.666-4.046v-15.708h4.658v15.708
			C1221.833,201.668,1220.824,204.105,1218.806,206.167z"/>
		<path fill="#3FA9F5" d="M1237.132,187.773v20.842h-4.658v-20.842h-7.719v-4.624h20.095v4.624H1237.132z"/>
		<path fill="#3FA9F5" d="M1264.536,208.615l-11.832-16.66v16.66h-4.624v-25.466h4.216l11.832,16.66v-16.66h4.658v25.466H1264.536z"
			/>
		<path fill="#3FA9F5" d="M1273.171,208.615v-25.466h18.326v4.624h-13.702v5.78h10.71v4.624h-10.71v5.78h13.702v4.658H1273.171z"/>
		<path fill="#3FA9F5" d="M1307.784,196.647v11.968h-4.658v-11.968l-9.521-13.498h5.746l6.086,8.67l6.12-8.67h5.746
			L1307.784,196.647z"/>
	</g>
	<g>
		<path fill="#3FA9F5" d="M81.007,344.979l-5.678-8.737c-0.726-1.134-1.961-1.7-3.706-1.7h-2.754v10.438h-4.624v-25.466h10.948
			c2.176,0,4.068,0.681,5.678,2.04c1.722,1.496,2.584,3.321,2.584,5.475c0,1.723-0.578,3.264-1.734,4.624
			c-0.794,0.884-1.689,1.563-2.686,2.039c0.204,0.228,0.408,0.482,0.612,0.766c0.204,0.283,0.419,0.584,0.646,0.9h-0.034
			l6.256,9.622H81.007z M77.708,324.953c-0.726-0.544-1.564-0.816-2.516-0.816h-6.324v5.78h6.324c0.952,0,1.79-0.272,2.516-0.816
			c0.725-0.521,1.088-1.212,1.088-2.073S78.434,325.475,77.708,324.953z"/>
		<path fill="#3FA9F5" d="M105.384,342.531c-2.063,2.017-4.511,3.025-7.344,3.025c-2.811,0-5.248-1.009-7.31-3.025
			c-2.018-2.062-3.026-4.499-3.026-7.311v-15.708h4.624v15.708c0,1.564,0.555,2.913,1.666,4.046
			c1.133,1.111,2.482,1.666,4.046,1.666c1.564,0,2.912-0.555,4.046-1.666c1.11-1.133,1.666-2.481,1.666-4.046v-15.708h4.658v15.708
			C108.41,338.032,107.401,340.469,105.384,342.531z"/>
		<path fill="#3FA9F5" d="M128.98,344.979l-11.832-16.659v16.659h-4.624v-25.466h4.216l11.832,16.66v-16.66h4.658v25.466H128.98z"/>
		<path fill="#3FA9F5" d="M154.072,344.979l-11.832-16.659v16.659h-4.624v-25.466h4.216l11.832,16.66v-16.66h4.658v25.466H154.072z"
			/>
		<path fill="#3FA9F5" d="M174.607,333.011v11.968h-4.658v-11.968l-9.52-13.498h5.746l6.086,8.67l6.12-8.67h5.746L174.607,333.011z"
			/>
		<path fill="#3FA9F5" d="M206.975,344.979v-16.115l-5.882,16.115h-4.318l-5.882-16.184v16.184h-4.624v-25.466h6.154l6.494,17.851
			l6.528-17.851h6.154v25.466H206.975z"/>
		<path fill="#3FA9F5" d="M216.019,344.979v-25.466h18.326v4.624h-13.702v5.78h10.71v4.624h-10.71v5.78h13.702v4.657H216.019z"/>
		<path fill="#3FA9F5" d="M257.465,341.239c-2.494,2.493-5.485,3.739-8.976,3.739h-9.758v-25.466h9.758
			c3.513,0,6.505,1.247,8.976,3.74c2.493,2.448,3.74,5.44,3.74,8.976C261.206,335.742,259.958,338.746,257.465,341.239z
			 M254.202,326.517c-1.61-1.586-3.514-2.38-5.712-2.38h-5.134v16.185h5.134c2.199,0,4.103-0.794,5.712-2.381
			c1.586-1.586,2.38-3.49,2.38-5.712C256.582,330.008,255.788,328.104,254.202,326.517z"/>
		<path fill="#3FA9F5" d="M265.319,344.979v-25.466h18.326v4.624h-13.702v5.78h10.71v4.624h-10.71v5.78h13.702v4.657H265.319z"/>
	</g>
</g>
<g id="Putney">
	<g>
		<g>
			<path fill="#43ACE5" d="M1243.406,123.314c11.472,11.472,22.943,22.943,34.416,34.416c4.563,4.563,11.635-2.507,7.07-7.071
				c-11.472-11.472-22.943-22.943-34.416-34.416C1245.913,111.679,1238.841,118.75,1243.406,123.314L1243.406,123.314z"/>
		</g>
	</g>
	<g>
		<line fill="#3FA9F5" x1="1246.941" y1="154.194" x2="1281.357" y2="119.778"/>
		<g>
			<path fill="#43ACE5" d="M1250.476,157.73c11.473-11.472,22.944-22.944,34.416-34.416c4.564-4.564-2.507-11.635-7.07-7.071
				c-11.473,11.472-22.944,22.944-34.416,34.416C1238.841,155.223,1245.913,162.293,1250.476,157.73L1250.476,157.73z"/>
		</g>
	</g>
	<g>
	</g>
	<g>
	</g>
	<g>
	</g>
	<g>
	</g>
	<g>
	</g>
	<g>
	</g>
	<g>
	</g>
	<g>
	</g>
	<g>
	</g>
	<g>
	</g>
	<g>
	</g>
	<g>
	</g>
	<g>
	</g>
	<g>
	</g>
	<g>
	</g>
</g>
</svg>
